<svg xmlns="http://www.w3.org/2000/svg" viewBox="0 0 64 64" width="64" height="64">
  <defs>
    <linearGradient id="swallowGradient" x1="0%" y1="0%" x2="100%" y2="100%">
      <stop offset="0%" style="stop-color:#0cbb92;stop-opacity:1" />
      <stop offset="100%" style="stop-color:#08a67d;stop-opacity:1" />
    </linearGradient>
  </defs>
  <!-- 燕子主体 -->
  <path d="M32 8 C28 8 24 10 22 14 L18 20 C16 24 14 28 12 32 L8 38 C6 42 8 46 12 46 C14 46 16 44 18 42 L22 38 C24 36 26 34 28 32 L32 28 L36 32 C38 34 40 36 42 38 L46 42 C48 44 50 46 52 46 C56 46 58 42 56 38 L52 32 C50 28 48 24 46 20 L42 14 C40 10 36 8 32 8 Z" 
        fill="url(#swallowGradient)" stroke="#067d63" stroke-width="1.5"/>
  <!-- 燕子翅膀 -->
  <path d="M22 28 C20 30 16 34 14 38 C12 42 10 48 8 52 C6 56 4 60 6 62 C8 64 12 62 14 58 C16 54 18 48 20 44 C22 40 24 36 26 32 Z" 
        fill="url(#swallowGradient)" stroke="#067d63" stroke-width="1.5" opacity="0.9"/>
  <path d="M42 28 C44 30 48 34 50 38 C52 42 54 48 56 52 C58 56 60 60 58 62 C56 64 52 62 50 58 C48 54 46 48 44 44 C42 40 40 36 38 32 Z" 
        fill="url(#swallowGradient)" stroke="#067d63" stroke-width="1.5" opacity="0.9"/>
  <!-- 燕子尾巴 -->
  <path d="M28 32 C26 36 24 40 22 44 C20 48 18 52 16 56 C14 60 12 64 10 66 C8 68 6 68 6 66 C6 64 8 60 10 56 C12 52 14 48 16 44 C18 40 20 36 22 32 Z" 
        fill="#08a67d" opacity="0.8"/>
  <path d="M36 32 C38 36 40 40 42 44 C44 48 46 52 48 56 C50 60 52 64 54 66 C56 68 58 68 58 66 C58 64 56 60 54 56 C52 52 50 48 48 44 C46 40 44 36 42 32 Z" 
        fill="#08a67d" opacity="0.8"/>
  <!-- 燕子眼睛 -->
  <circle cx="28" cy="18" r="2" fill="white"/>
  <circle cx="36" cy="18" r="2" fill="white"/>
  <circle cx="28" cy="18" r="1" fill="#333"/>
  <circle cx="36" cy="18" r="1" fill="#333"/>
</svg>

