<svg xmlns="http://www.w3.org/2000/svg" width="64" height="64" viewBox="0 0 64 64"><defs><linearGradient id="swallowGradient" x1="0%" x2="100%" y1="0%" y2="100%"><stop offset="0%" style="stop-color:#0cbb92;stop-opacity:1"/><stop offset="100%" style="stop-color:#08a67d;stop-opacity:1"/></linearGradient></defs><path fill="url(#swallowGradient)" stroke="#067d63" stroke-width="1.5" d="M32 8 C28 8 24 10 22 14 L18 20 C16 24 14 28 12 32 L8 38 C6 42 8 46 12 46 C14 46 16 44 18 42 L22 38 C24 36 26 34 28 32 L32 28 L36 32 C38 34 40 36 42 38 L46 42 C48 44 50 46 52 46 C56 46 58 42 56 38 L52 32 C50 28 48 24 46 20 L42 14 C40 10 36 8 32 8 Z"/><path fill="url(#swallowGradient)" stroke="#067d63" stroke-width="1.5" d="M22 28C20 30 16 34 14 38 12 42 10 48 8 52 6 56 4 60 6 62 8 64 12 62 14 58 16 54 18 48 20 44 22 40 24 36 26 32ZM42 28C44 30 48 34 50 38 52 42 54 48 56 52 58 56 60 60 58 62 56 64 52 62 50 58 48 54 46 48 44 44 42 40 40 36 38 32Z" opacity="0.9"/><path fill="#08a67d" d="M28 32C26 36 24 40 22 44 20 48 18 52 16 56 14 60 12 64 10 66 8 68 6 68 6 66 6 64 8 60 10 56 12 52 14 48 16 44 18 40 20 36 22 32ZM36 32C38 36 40 40 42 44 44 48 46 52 48 56 50 60 52 64 54 66 56 68 58 68 58 66 58 64 56 60 54 56 52 52 50 48 48 44 46 40 44 36 42 32Z" opacity="0.8"/><circle cx="28" cy="18" r="2" fill="#fff"/><circle cx="36" cy="18" r="2" fill="#fff"/><circle cx="28" cy="18" r="1" fill="#333"/><circle cx="36" cy="18" r="1" fill="#333"/></svg>